<?xml version="1.0" encoding="utf-8"?>
<!-- Generator: Adobe Illustrator 24.3.0, SVG Export Plug-In . SVG Version: 6.00 Build 0)  -->
<svg version="1.1" id="Layer_1" xmlns="http://www.w3.org/2000/svg" xmlns:xlink="http://www.w3.org/1999/xlink" x="0px" y="0px"
	 viewBox="0 0 72 72" style="enable-background:new 0 0 72 72;" xml:space="preserve">
<style type="text/css">
	.st0{fill:url(#SVGID_2_);}
	.st1{fill:#FFFFFF;}
</style>
<linearGradient id="SVGID_2_" gradientUnits="userSpaceOnUse" x1="36" y1="0" x2="36" y2="72">
	<stop  offset="0" style="stop-color:#FC5A74"/>
	<stop  offset="1" style="stop-color:#F8263D"/>
</linearGradient>
<rect class="st0" width="72" height="72"/>
<g id="Guides">
</g>
<g>
	<path id="SVGID_1_" class="st1" d="M46.7,18.1c-0.1,0-1.2,0.2-1.4,0.2L30,21.5l0,0c-0.4,0.1-0.7,0.2-1,0.4c-0.3,0.3-0.5,0.6-0.5,1
		c0,0.1,0,0.3,0,0.5c0,0,0,16.1,0,19.7c0,0.5,0,0.9-0.3,1.3c-0.3,0.4-0.7,0.5-1.1,0.6c-0.3,0.1-0.7,0.1-1,0.2
		c-1.3,0.3-2.1,0.4-2.8,0.7c-0.7,0.3-1.2,0.6-1.7,1.1c-0.8,0.9-1.2,2.1-1.1,3.3c0.1,1,0.5,1.9,1.3,2.6c0.5,0.5,1.1,0.8,1.9,1
		s1.6,0.1,2.8-0.1c0.6-0.1,1.2-0.3,1.8-0.7c0.6-0.3,1-0.8,1.4-1.3c0.4-0.6,0.6-1.2,0.8-1.8c0.1-0.7,0.2-1.3,0.2-1.9V31
		c0-0.9,0.3-1.2,1-1.3c0,0,12.8-2.6,13.3-2.8c0.8-0.2,1.2,0.1,1.2,1v11.7c0,0.5,0,0.9-0.3,1.3c-0.3,0.4-0.7,0.5-1.1,0.6
		c-0.3,0.1-0.7,0.1-1,0.2c-1.3,0.3-2.1,0.4-2.8,0.7s-1.2,0.6-1.7,1.1c-0.8,0.9-1.2,2.1-1.1,3.3c0.1,1,0.6,1.9,1.3,2.6
		c0.5,0.5,1.1,0.8,1.9,1c0.8,0.2,1.6,0.1,2.8-0.1c0.6-0.1,1.2-0.3,1.8-0.7c0.6-0.3,1-0.8,1.4-1.3c0.4-0.6,0.6-1.2,0.8-1.8
		c0.1-0.7,0.1-1.3,0.1-1.9v-25C48,18.6,47.5,18,46.7,18.1z"/>
</g>
</svg>
