<?xml version="1.0" encoding="utf-8"?>
<!-- Generator: Adobe Illustrator 24.0.3, SVG Export Plug-In . SVG Version: 6.00 Build 0)  -->
<svg version="1.1" id="Layer_1" xmlns="http://www.w3.org/2000/svg" xmlns:xlink="http://www.w3.org/1999/xlink" x="0px" y="0px"
	 viewBox="0 0 72 72" style="enable-background:new 0 0 72 72;" xml:space="preserve">
<style type="text/css">
	.st0{fill:#231F20;}
</style>
<g id="Guides">
</g>
<path class="st0" d="M18,42.4c0,0.4,0.2,0.8,0.5,1c0.3,0.2,0.7,0.3,1,0.2c0.3-0.1,0.6-0.2,0.7-0.4c0.1-0.2,0.2-0.5,0.2-0.9v-4.9
	c0-0.3-0.1-0.6-0.4-0.9c-0.2-0.2-0.5-0.4-0.9-0.4c-0.3,0-0.6,0.1-0.9,0.4c-0.2,0.2-0.4,0.5-0.4,0.9V42.4z M21.9,44.5
	c0,0.3,0.1,0.6,0.3,0.7c0.2,0.2,0.5,0.2,0.9,0.2c0.4,0,0.7-0.1,0.9-0.2c0.2-0.2,0.3-0.4,0.3-0.7V33.2c0-0.3-0.1-0.6-0.4-0.9
	c-0.2-0.2-0.5-0.4-0.9-0.4c-0.3,0-0.6,0.1-0.9,0.4c-0.2,0.2-0.4,0.5-0.4,0.9V44.5z M25.7,45c0,0.3,0.1,0.6,0.4,0.7
	c0.2,0.2,0.5,0.2,0.9,0.2c0.4,0,0.7-0.1,0.9-0.2c0.2-0.2,0.3-0.4,0.3-0.7V34.7c0-0.3-0.1-0.6-0.4-0.9c-0.2-0.2-0.5-0.4-0.9-0.4
	c-0.3,0-0.6,0.1-0.9,0.4c-0.2,0.2-0.4,0.5-0.4,0.9L25.7,45L25.7,45z M29.5,45.1c0,0.6,0.4,0.9,1.2,0.9c0.8,0,1.2-0.3,1.2-0.9V28.3
	c0-0.9-0.3-1.5-0.9-1.6c-0.4-0.1-0.7,0-1.1,0.3c-0.4,0.3-0.5,0.7-0.5,1.3L29.5,45.1L29.5,45.1z M33.5,45.5V27.3c0-0.6,0.2-0.9,0.5-1
	c0.7-0.2,1.5-0.3,2.2-0.3c1.7,0,3.3,0.4,4.8,1.2c1.5,0.8,2.7,1.9,3.6,3.3c0.9,1.4,1.4,2.9,1.6,4.6c0.7-0.3,1.4-0.4,2.2-0.4
	c1.6,0,2.9,0.6,4,1.7c1.1,1.1,1.7,2.4,1.7,4c0,1.6-0.6,2.9-1.7,4c-1.1,1.1-2.4,1.7-4,1.7l-14.6,0c-0.1,0-0.2-0.1-0.2-0.2
	C33.5,45.7,33.5,45.6,33.5,45.5L33.5,45.5z"/>
</svg>
